<?xml version="1.0" encoding="utf-8"?>
<!-- Generator: Adobe Illustrator 25.4.1, SVG Export Plug-In . SVG Version: 6.00 Build 0)  -->
<svg version="1.1" id="Calque_1" xmlns="http://www.w3.org/2000/svg" xmlns:xlink="http://www.w3.org/1999/xlink" x="0px" y="0px"
	 viewBox="0 0 43.6 8.5" style="enable-background:new 0 0 43.6 8.5;" xml:space="preserve">
<style type="text/css">
	.st0{fill:none;}
	.st1{fill:#FFFFFF;}
	.st2{fill:#F55656;}
</style>
<path class="st0" d="M18.6,1.5h-1.1v2.1h1.1c1,0,1.4-0.4,1.4-1C20.1,1.9,19.6,1.5,18.6,1.5z"/>
<polygon class="st1" points="5.1,3.6 1.5,3.6 1.5,0.1 0,0.1 0,8.4 1.5,8.4 1.5,4.9 5.1,4.9 5.1,8.4 6.6,8.4 6.6,0.1 5.1,0.1 "/>
<polygon class="st1" points="8.7,8.4 14.2,8.4 14.2,7 10.2,7 10.2,4.9 14,4.9 14,3.6 10.2,3.6 10.2,1.5 14.2,1.5 14.2,0.1 8.7,0.1 
	"/>
<path class="st1" d="M18.6,0.1H16v8.3h1.5V5h1.1c1.7,0,2.9-0.8,2.9-2.4C21.5,1,20.3,0.1,18.6,0.1z M18.6,3.6h-1.1V1.5h1.1
	c1,0,1.4,0.4,1.4,1.1C20.1,3.2,19.6,3.6,18.6,3.6z"/>
<polygon class="st1" points="24.3,0.1 22.8,0.1 22.8,8.4 27.9,8.4 27.9,7 24.3,7 "/>
<path class="st1" d="M33.6,6.6V0.9C32.9,0.4,32.2,0,31.3,0c-1.4,0-2.4,0.8-2.4,2v0.5H28v1.2h0.9v4.7h1.4V3.7h0.9V2.5h-0.9V2
	c0-0.5,0.4-0.8,0.9-0.8c0.3,0,0.6,0.1,0.9,0.3v5.7c0,1,0.6,1.3,1.2,1.3c0.4,0,0.7-0.1,1-0.1V7.2c-0.1,0-0.2,0-0.3,0
	C33.8,7.2,33.6,7.2,33.6,6.6z"/>
<rect x="35.4" y="0.1" class="st2" width="1.5" height="1.3"/>
<rect x="35.4" y="2.5" class="st1" width="1.4" height="5.9"/>
<polygon class="st1" points="43.6,2.5 41.9,2.5 40.7,4.5 39.5,2.5 37.7,2.5 39.7,5.4 37.7,8.4 39.5,8.4 40.7,6.4 41.9,8.4 43.6,8.4 
	41.6,5.4 "/>
</svg>
